<?xml version="1.0" encoding="iso-8859-1"?>
<!-- Generator: Adobe Illustrator 22.1.0, SVG Export Plug-In . SVG Version: 6.00 Build 0)  -->
<svg version="1.1" id="Layer_1" xmlns="http://www.w3.org/2000/svg" xmlns:xlink="http://www.w3.org/1999/xlink" x="0px" y="0px"
	 viewBox="0 0 48 48" style="enable-background:new 0 0 48 48;" xml:space="preserve">
<path d="M41,9.276V35.5c0,3.032-2.467,5.5-5.5,5.5H9.276c0.621,1.742,2.271,3,4.224,3h22c4.687,0,8.5-3.813,8.5-8.5v-22
	C44,11.547,42.742,9.898,41,9.276z"/>
<path d="M34.5,4h-26C6.019,4,4,6.019,4,8.5v26C4,36.981,6.019,39,8.5,39h26c2.481,0,4.5-2.019,4.5-4.5v-26C39,6.019,36.981,4,34.5,4
	z M29.561,17.561l-9,9C20.268,26.854,19.884,27,19.5,27s-0.768-0.146-1.061-0.439l-4-4c-0.586-0.586-0.586-1.535,0-2.121
	s1.535-0.586,2.121,0l2.939,2.939l7.939-7.939c0.586-0.586,1.535-0.586,2.121,0S30.146,16.975,29.561,17.561z"/>
</svg>