<svg version="1.1" id="svg2" width="11" height="11" viewBox="0 0 768.96533 453.33334" xmlns="http://www.w3.org/2000/svg" xmlns:svg="http://www.w3.org/2000/svg">
                    <defs id="defs6">
                      <clipPath clipPathUnits="userSpaceOnUse" id="clipPath16">
                        <path d="M 0,340 H 576.724 V 0 H 0 Z" id="path14"></path>
                      </clipPath>
                    </defs>
                    <g id="g8" transform="matrix(1.3333333,0,0,-1.3333333,0,453.33333)">
                      <g id="g10">
                        <g id="g12" clip-path="url(#clipPath16)">
                          <g id="g18" transform="translate(288.6188,333.752)">
                            <path d="m 0,0 c 83.169,0 166.338,-0.004 249.506,0.004 8.865,0.001 17.355,-1.219 24.533,-7.066 14.57,-11.868 16.234,-32.278 3.416,-46.204 -16.234,-17.636 -32.695,-35.063 -49.127,-52.516 -64.565,-68.577 -129.187,-137.101 -193.699,-205.728 -7.474,-7.95 -15.8,-14.195 -26.741,-16.077 -15.578,-2.681 -29.006,1.745 -39.876,13.19 -22.499,23.686 -44.877,47.488 -67.263,71.28 -59.019,62.726 -117.99,125.497 -177.048,188.185 -9.253,9.822 -12.858,20.9 -8.075,33.798 4.742,12.79 14.416,19.514 27.881,20.841 2.946,0.29 5.93,0.282 8.896,0.282 C -165.065,0.003 -82.532,0 0,0" style="fill:#000000;fill-opacity:1;fill-rule:nonzero;stroke:none" id="path20"></path>
                          </g>
                        </g>
                      </g>
                    </g>
                  </svg>